<svg xmlns="http://www.w3.org/2000/svg" viewBox="0 0 512 512" width="512" height="512">
  <rect x="32" y="32" width="448" height="448" rx="112" ry="112" fill="#4285F4" />
  
  <path d="M144 160v192h32v-128l48 48 48-48v128h32v-192h-48l-48 48-48-48h-48z" fill="#ffffff" />
  <path d="M256 384l-32-32h64l-32 32z" fill="#ffffff" />

  <path d="M416 128c0-17.7-14.3-32-32-32s-32 14.3-32 32 14.3 32 32 32 32-14.3 32-32z" fill="#FBBC05" />
  <path d="M352 64c0-17.7-14.3-32-32-32s-32 14.3-32 32 14.3 32 32 32 32-14.3 32-32z" fill="#FBBC05" />
  <path d="M464 64c0-17.7-14.3-32-32-32s-32 14.3-32 32 14.3 32 32 32 32-14.3 32-32z" fill="#FBBC05" />

  <path d="M112 256c0 79.5 64.5 144 144 144s144-64.5 144-144c0-13.2-10.8-24-24-24s-24 10.8-24 24c0 53-43 96-96 96s-96-43-96-96c0-13.2-10.8-24-24-24s-24 10.8-24 24z" fill="#ffffff" opacity="0.3" />
</svg>